<svg xmlns="http://www.w3.org/2000/svg" viewBox="0 0 390 240" role="img" aria-label="观澜AI 澜线符号">
  <title>观澜AI 澜线符号</title>
  <g transform="translate(4 10)">
    <path d="M59 88 C132 52, 258 52, 337 88 C246 70, 143 70, 59 88 Z" fill="#C8A766" opacity="0.68"/>
    <path d="M62 137 C115 113, 156 117, 199 132 C247 149, 295 143, 366 115 C292 153, 246 160, 193 143 C149 128, 111 124, 62 137 Z" fill="#A7ADB4" opacity="0.5"/>
    <path d="M47 154 C105 129, 153 133, 201 150 C256 170, 313 161, 381 129 C314 175, 254 188, 197 166 C147 147, 102 143, 47 154 Z" fill="#071827"/>
    <path d="M0 184 C78 148, 136 153, 196 173 C253 192, 310 183, 381 148 C309 195, 250 211, 191 190 C131 169, 75 164, 0 184 Z" fill="#0D355C" opacity="0.98"/>
    <path d="M64 207 C122 183, 166 187, 214 200 C262 214, 311 205, 368 178 C310 212, 262 225, 211 211 C161 198, 119 194, 64 207 Z" fill="#6F7F8F" opacity="0.7"/>
  </g>
</svg>
